<svg width="223" height="108" viewBox="0 0 223 108" fill="none" xmlns="http://www.w3.org/2000/svg">
<path d="M12.2591 41.602L12.4151 36.35H12.1811L8.67109 45.684L5.16109 36.35H4.92709L5.08309 41.602V50H2.11909V31.852H6.17509L8.69709 38.534H8.87909L11.4271 31.852H15.2231V50H12.2591V41.602ZM26.7829 47.634H26.6529C26.3583 48.362 25.8989 48.9947 25.2749 49.532C24.6683 50.052 23.8189 50.312 22.7269 50.312C21.4096 50.312 20.3349 49.8787 19.5029 49.012C18.6883 48.128 18.2809 46.8713 18.2809 45.242V36.584H21.6089V44.774C21.6089 46.7153 22.4496 47.686 24.1309 47.686C24.4603 47.686 24.7809 47.6427 25.0929 47.556C25.4223 47.4693 25.7083 47.3393 25.9509 47.166C26.2109 46.9753 26.4103 46.75 26.5489 46.49C26.7049 46.23 26.7829 45.918 26.7829 45.554V36.584H30.1109V50H26.7829V47.634ZM39.7988 50.312C38.3254 50.312 37.0514 50.0867 35.9768 49.636C34.9021 49.168 34.0614 48.544 33.4548 47.764L35.4048 45.996C35.9594 46.6027 36.5921 47.0707 37.3028 47.4C38.0308 47.7293 38.8714 47.894 39.8248 47.894C40.6568 47.894 41.3241 47.7553 41.8268 47.478C42.3294 47.2007 42.5808 46.776 42.5808 46.204C42.5808 45.7187 42.4074 45.3893 42.0608 45.216C41.7314 45.0427 41.2894 44.9127 40.7348 44.826L38.5768 44.488C38.0221 44.4013 37.4761 44.28 36.9388 44.124C36.4188 43.9507 35.9508 43.7167 35.5348 43.422C35.1361 43.1273 34.8154 42.7547 34.5728 42.304C34.3301 41.836 34.2088 41.2727 34.2088 40.614C34.2088 39.21 34.7288 38.1353 35.7688 37.39C36.8261 36.6447 38.2734 36.272 40.1108 36.272C41.4108 36.272 42.5114 36.454 43.4128 36.818C44.3314 37.182 45.0854 37.6933 45.6748 38.352L43.9328 40.276C43.5514 39.86 43.0401 39.496 42.3988 39.184C41.7748 38.8547 40.9774 38.69 40.0068 38.69C38.3081 38.69 37.4588 39.2187 37.4588 40.276C37.4588 40.7613 37.6321 41.0993 37.9788 41.29C38.3254 41.4633 38.7761 41.5933 39.3308 41.68L41.4628 42.018C42.0348 42.1047 42.5808 42.2347 43.1008 42.408C43.6381 42.564 44.1061 42.7893 44.5048 43.084C44.9208 43.3787 45.2501 43.7513 45.4928 44.202C45.7354 44.6527 45.8568 45.2073 45.8568 45.866C45.8568 47.2527 45.3194 48.3447 44.2448 49.142C43.1874 49.922 41.7054 50.312 39.7988 50.312ZM55.7526 50.312C54.678 50.312 53.7246 50.1473 52.8926 49.818C52.0606 49.4887 51.3586 49.0207 50.7866 48.414C50.232 47.8073 49.8073 47.0793 49.5126 46.23C49.218 45.3633 49.0706 44.3927 49.0706 43.318C49.0706 42.226 49.218 41.2467 49.5126 40.38C49.8246 39.5133 50.258 38.7767 50.8126 38.17C51.3673 37.5633 52.0346 37.0953 52.8146 36.766C53.612 36.4367 54.5046 36.272 55.4926 36.272C56.4633 36.272 57.3386 36.4367 58.1186 36.766C58.8986 37.078 59.5573 37.5287 60.0946 38.118C60.6493 38.7073 61.074 39.418 61.3686 40.25C61.6633 41.082 61.8106 42.0007 61.8106 43.006V44.098H52.3986V44.436C52.3986 45.4067 52.702 46.1953 53.3086 46.802C53.9153 47.3913 54.7646 47.686 55.8566 47.686C56.6886 47.686 57.3993 47.5213 57.9886 47.192C58.5953 46.8453 59.098 46.3947 59.4966 45.84L61.3946 47.738C60.9093 48.4487 60.1986 49.0553 59.2626 49.558C58.344 50.0607 57.174 50.312 55.7526 50.312ZM55.5186 38.716C54.5826 38.716 53.8286 39.0107 53.2566 39.6C52.6846 40.1893 52.3986 40.9693 52.3986 41.94V42.122H58.4826V41.888C58.4826 40.9173 58.214 40.146 57.6766 39.574C57.1566 39.002 56.4373 38.716 55.5186 38.716ZM73.5525 47.634H73.4225C73.1278 48.362 72.6685 48.9947 72.0445 49.532C71.4378 50.052 70.5885 50.312 69.4965 50.312C68.1791 50.312 67.1045 49.8787 66.2725 49.012C65.4578 48.128 65.0505 46.8713 65.0505 45.242V36.584H68.3785V44.774C68.3785 46.7153 69.2191 47.686 70.9005 47.686C71.2298 47.686 71.5505 47.6427 71.8625 47.556C72.1918 47.4693 72.4778 47.3393 72.7205 47.166C72.9805 46.9753 73.1798 46.75 73.3185 46.49C73.4745 46.23 73.5525 45.918 73.5525 45.554V36.584H76.8805V50H73.5525V47.634ZM79.7823 50V36.584H82.5383V38.43H82.6943C82.9023 37.8407 83.197 37.338 83.5783 36.922C83.977 36.4887 84.5316 36.272 85.2423 36.272C85.9183 36.272 86.4556 36.4713 86.8543 36.87C87.253 37.2513 87.513 37.7973 87.6343 38.508H87.7643C87.9896 37.9013 88.319 37.3813 88.7523 36.948C89.203 36.4973 89.8356 36.272 90.6503 36.272C91.6383 36.272 92.349 36.6273 92.7823 37.338C93.2156 38.0487 93.4323 39.0973 93.4323 40.484V50H90.7023V40.874C90.7023 40.094 90.5896 39.548 90.3643 39.236C90.1563 38.924 89.8356 38.768 89.4023 38.768C89.0036 38.768 88.6656 38.898 88.3883 39.158C88.1283 39.418 87.9983 39.8167 87.9983 40.354V50H85.2423V40.874C85.2423 40.094 85.1383 39.548 84.9303 39.236C84.7223 38.924 84.4016 38.768 83.9683 38.768C83.5523 38.768 83.2056 38.898 82.9283 39.158C82.6683 39.418 82.5383 39.8167 82.5383 40.354V50H79.7823ZM71.0305 84.312C70.0078 84.312 69.0891 84.1473 68.2745 83.818C67.4771 83.4887 66.7925 83.0207 66.2205 82.414C65.6658 81.8073 65.2325 81.0707 64.9205 80.204C64.6258 79.3373 64.4785 78.3667 64.4785 77.292C64.4785 76.2173 64.6258 75.2467 64.9205 74.38C65.2325 73.5133 65.6658 72.7767 66.2205 72.17C66.7925 71.5633 67.4771 71.0953 68.2745 70.766C69.0891 70.4367 70.0078 70.272 71.0305 70.272C72.0358 70.272 72.9458 70.4367 73.7605 70.766C74.5751 71.0953 75.2598 71.5633 75.8145 72.17C76.3865 72.7767 76.8198 73.5133 77.1145 74.38C77.4265 75.2467 77.5825 76.2173 77.5825 77.292C77.5825 78.3667 77.4265 79.3373 77.1145 80.204C76.8198 81.0707 76.3865 81.8073 75.8145 82.414C75.2598 83.0207 74.5751 83.4887 73.7605 83.818C72.9458 84.1473 72.0358 84.312 71.0305 84.312ZM71.0305 81.764C71.9838 81.764 72.7378 81.478 73.2925 80.906C73.8471 80.3167 74.1245 79.4587 74.1245 78.332V76.252C74.1245 75.1253 73.8471 74.276 73.2925 73.704C72.7378 73.1147 71.9838 72.82 71.0305 72.82C70.0771 72.82 69.3231 73.1147 68.7685 73.704C68.2138 74.276 67.9365 75.1253 67.9365 76.252V78.332C67.9365 79.4587 68.2138 80.3167 68.7685 80.906C69.3231 81.478 70.0771 81.764 71.0305 81.764ZM80.7703 81.374H84.8783V73.21H80.5103V70.584H84.8783V68.4C84.8783 67.8627 84.9476 67.3773 85.0863 66.944C85.2423 66.4933 85.4763 66.112 85.7883 65.8C86.1003 65.4707 86.4903 65.2193 86.9583 65.046C87.4436 64.8553 88.007 64.76 88.6483 64.76H93.1723V67.386H88.2063V70.584H93.1723V73.21H88.2063V81.374H92.5743V84H80.7703V81.374Z" fill="black"/>
<path d="M153.717 46.986H153.468L149.235 55.452L137.947 75.953L126.908 55.535L122.509 46.405H122.26V85H110.391V27.066H123.754L137.947 54.207H138.113L152.14 27.066H165.586V85H153.717V46.986ZM178.396 85V27.066H217.821V38.271H191.012V50.14H214.003V61.262H191.012V73.795H217.821V85H178.396Z" fill="black"/>
</svg>
